<?xml version="1.0" encoding="UTF-8"?>
<!DOCTYPE svg PUBLIC "-//W3C//DTD SVG 1.1//EN" "http://www.w3.org/Graphics/SVG/1.1/DTD/svg11.dtd">
<!-- Creator: CorelDRAW 2019 (64-Bit) -->
<svg xmlns="http://www.w3.org/2000/svg" xml:space="preserve" width="40mm" height="40mm" version="1.1" style="shape-rendering:geometricPrecision; text-rendering:geometricPrecision; image-rendering:optimizeQuality; fill-rule:evenodd; clip-rule:evenodd"
viewBox="0 0 1610.17 1610.17"
 xmlns:xlink="http://www.w3.org/1999/xlink">
 <defs>
  <style type="text/css">
   <![CDATA[
    .fil1 {fill:#07A4B5}
    .fil0 {fill:#C9EFF9}
   ]]>
  </style>
 </defs>
 <g id="Layer_x0020_1">
  <metadata id="CorelCorpID_0Corel-Layer"/>
  <path class="fil0" d="M1610.17 516.46c0,-58.19 -16,-117.04 -35.21,-166.59 -25.97,-66.96 -56.75,-94.77 -99.67,-140.14l-45.17 -35.95c-21.43,-15.16 -44.18,-26.3 -70.52,-38.52 -123.59,-57.34 -268.6,-53.65 -397.01,-10.95 -52.74,17.54 -114.62,55.37 -125.87,57.99 -11.54,-8.92 -22.71,-25.74 -31.87,-34.76 -121.56,-119.7 -273.62,-180.54 -454,-129.25 -143.33,40.75 -257.74,151.51 -309.64,279.12 -34.45,84.69 -41.22,137.1 -41.22,228.66 0,185.97 111.56,369.78 227.75,501.25 35.09,39.71 216.54,244.25 266.61,289.43 8.68,7.83 14.08,15.41 22.96,24.06l47.66 46.29c8.18,8.14 15.28,13.22 21.77,21.48 -3.33,8.62 -8.93,15.18 -15.05,24.51 -23.26,35.52 -50,85.76 -64.75,123.93 -6.7,17.34 -12.78,37.01 -20.26,53.13 3.54,-2.09 55.16,-77.74 62.84,-88.37 10.43,-14.43 23.09,-28.79 34.4,-42.39 13.03,-15.68 23.07,-24.68 33.29,-40.12 19.86,7.92 173.37,153.59 200.39,167.4l-90.43 -91.76c-11.93,-10.17 -12.33,-15.04 -22.56,-24.35 -13.94,-12.7 -61.49,-58.34 -66.31,-73.75l62.27 -55.51c20.16,-17.73 41.83,-37.83 63.96,-53.75l137.31 -96.2c279.35,-185.16 708.31,-337.31 708.31,-694.91z"/>
  <path class="fil1" d="M604.69 1383.45c-14.29,-6.98 -137.28,-149.19 -158.73,-173.34 -144.63,-162.84 -329.02,-402.14 -343.87,-629.51 -20.5,-313.81 225.67,-565.65 475.21,-488.4 41.62,12.89 81.49,33.73 110.29,56.56 24.41,19.35 67.78,54.81 83.87,82.08 -16.81,16.65 -36.09,28.99 -51.2,47.87 -8.46,10.57 -13.77,12.95 -23.11,23.77 -70.16,81.23 -120.19,164.4 -153.5,267.38 -7.52,23.24 -40.09,129.19 -32.71,140.95 10.91,-17.02 22.29,-51.65 33.34,-73.17 24.59,-47.85 71.61,-130.6 104.5,-170.8l62.27 -74.79c47.76,-55.28 133.56,-120.08 205.02,-152.9 258.23,-118.6 521.87,-1.69 546.84,248.23 24.33,243.56 -189.49,370.91 -376.69,494.17 -100.56,66.21 -165.8,109.67 -261.3,182.04 -5.92,4.48 -9.81,9.29 -15.94,14.13l-43.66 37.33c-43.51,40.12 -73.54,65.32 -111.52,110.03l-49.11 58.38zm1005.48 -867c0,-58.19 -16,-117.04 -35.22,-166.59 -25.97,-66.96 -56.74,-94.77 -99.67,-140.14l-45.17 -35.95c-21.43,-15.15 -44.18,-26.3 -70.52,-38.52 -123.59,-57.34 -268.6,-53.65 -397.01,-10.94 -52.73,17.54 -114.62,55.37 -125.87,57.99 -11.54,-8.92 -22.7,-25.75 -31.86,-34.76 -121.57,-119.7 -273.62,-180.54 -454,-129.25 -143.34,40.76 -257.74,151.52 -309.65,279.12 -34.45,84.69 -41.21,137.11 -41.21,228.67 0,185.97 111.56,369.78 227.75,501.25 35.09,39.71 216.54,244.25 266.61,289.43 8.68,7.83 14.08,15.41 22.96,24.06l47.66 46.29c8.18,8.14 15.28,13.22 21.77,21.48 -3.33,8.62 -8.93,15.18 -15.05,24.51 -23.26,35.52 -50,85.76 -64.75,123.93 -6.7,17.33 -12.78,37.01 -20.26,53.13 3.54,-2.09 55.16,-77.74 62.84,-88.38 10.43,-14.43 23.09,-28.79 34.4,-42.39 13.03,-15.68 23.07,-24.68 33.29,-40.12 19.86,7.92 173.37,153.59 200.39,167.39l-90.43 -91.76c-11.92,-10.17 -12.32,-15.04 -22.55,-24.35 -13.94,-12.7 -61.49,-58.34 -66.31,-73.75l62.27 -55.51c20.16,-17.73 41.83,-37.82 63.96,-53.75l137.32 -96.2c279.34,-185.15 708.31,-337.31 708.31,-694.91z"/>
 </g>
</svg>
